<svg version="1.1" xmlns="http://www.w3.org/2000/svg" width="429px" height="98px" transform="rotate(0) scale(1, 1)">
<path d="M0 0 C3.58783061 1.19594354 3.94614217 2.04072587 5.8984375 5.171875 C6.73097046 6.49348633 6.73097046 6.49348633 7.58032227 7.84179688 C8.17256592 8.80150391 8.76480957 9.76121094 9.375 10.75 C9.9949585 11.74064453 10.61491699 12.73128906 11.25366211 13.75195312 C12.54493731 15.81851828 13.83223588 17.88757305 15.11572266 19.95898438 C16.85401912 22.76440297 18.60274635 25.56295523 20.35546875 28.359375 C23.60260699 33.55332022 26.81223683 38.76942247 30 44 C30.52416504 44.85996582 31.04833008 45.71993164 31.58837891 46.60595703 C38.47825027 57.96333035 45.00241713 69.50049967 51.3125 81.1875 C51.64940857 81.80730743 51.98631714 82.42711487 52.33343506 83.06570435 C53.28779554 84.82522776 54.23201534 86.59024001 55.17578125 88.35546875 C55.72145752 89.37278076 56.26713379 90.39009277 56.8293457 91.43823242 C58 94 58 94 58 97 C56.76362793 96.99476318 55.52725586 96.98952637 54.25341797 96.98413086 C23.7265995 96.85007222 23.7265995 96.85007222 -6.78613281 97.64208984 C-23.84662184 98.30229597 -40.93002391 98.08476306 -58 98 C-56.79998723 94.14734575 -55.44094435 90.70103733 -53.453125 87.19140625 C-52.94531494 86.29156006 -52.43750488 85.39171387 -51.91430664 84.46459961 C-51.36508545 83.50690674 -50.81586426 82.54921387 -50.25 81.5625 C-49.38652954 80.04765015 -49.38652954 80.04765015 -48.50561523 78.50219727 C-38.41672503 60.90561286 -27.63832645 43.74593143 -16.70361328 26.66650391 C-13.89213392 22.26596254 -11.10122655 17.85248363 -8.3125 13.4375 C-7.81927246 12.65793945 -7.32604492 11.87837891 -6.81787109 11.07519531 C-4.50182787 7.40819457 -2.20990605 3.73245001 0 0 Z M1 3 C-3.8932189 10.15050116 -7.68285846 18.0363543 -11.60467529 25.74575806 C-19.38016898 41.0192984 -27.48044486 56.09347502 -35.8203125 71.06640625 C-36.27229004 71.87811279 -36.72426758 72.68981934 -37.18994141 73.52612305 C-38.02589289 75.02494698 -38.86389898 76.52262808 -39.70458984 78.01879883 C-40.26847412 79.02656372 -40.26847412 79.02656372 -40.84375 80.0546875 C-41.16537109 80.62687012 -41.48699219 81.19905273 -41.81835938 81.78857422 C-43.61770826 85.15603336 -45.30359043 88.57977971 -47 92 C-13.99665522 92.99052184 18.98338598 93.12096811 52 93 C51.04962951 91.2436422 50.09755838 89.48820454 49.14477539 87.7331543 C48.61477432 86.75549606 48.08477325 85.77783783 47.53871155 84.77055359 C45.64099694 81.35359085 43.56783266 78.08657124 41.4375 74.8125 C35.37631793 65.28296839 30.10675003 55.33765456 24.79882812 45.37548828 C22.88690606 41.78778001 20.96789827 38.20393358 19.046875 34.62109375 C17.09632328 30.9830219 15.14647428 27.34459257 13.20043945 23.70410156 C9.5007508 16.78402389 5.77008729 9.88198775 2 3 C1.67 3 1.34 3 1 3 Z " fill="#ea6365" transform="translate(58,0)"/>
<path d="M0 0 C10 0 10 0 13.27734375 3.10546875 C14.19850757 4.44306715 15.08494877 5.80515827 15.9375 7.1875 C16.6190918 8.19780273 16.6190918 8.19780273 17.31445312 9.22851562 C19.66723022 12.74909449 21.8204623 16.36743717 24 20 C24.33 13.4 24.66 6.8 25 0 C28.63 0 32.26 0 36 0 C36 13.53 36 27.06 36 41 C25 41 25 41 22.38671875 38.91015625 C21.82597656 37.97042969 21.26523438 37.03070313 20.6875 36.0625 C20.06230469 35.06734375 19.43710938 34.0721875 18.79296875 33.046875 C18.20128906 32.04140625 17.60960937 31.0359375 17 30 C15.84235897 28.2647779 14.67661591 26.53491211 13.5 24.8125 C12.675 23.554375 11.85 22.29625 11 21 C10.67 27.6 10.34 34.2 10 41 C6.7 41 3.4 41 0 41 C0 27.47 0 13.94 0 0 Z " fill="#ea6365" transform="translate(139,32)"/>
<path d="M0 0 C3.63 0 7.26 0 11 0 C11.07445407 4.73222455 11.1287447 9.46410411 11.16479492 14.19677734 C11.17983176 15.80491072 11.20026672 17.41300344 11.22631836 19.02099609 C11.26292822 21.33962064 11.27977722 23.65770049 11.29296875 25.9765625 C11.30845261 26.68930328 11.32393646 27.40204407 11.33988953 28.13638306 C11.34168517 33.52706317 10.17172732 37.6190177 6.5 41.64453125 C0.44372908 46.36022137 -4.52972246 46.57875895 -12 46 C-17.29549457 44.23483514 -19.75721478 41.35459729 -23 37 C-24.96624161 33.06751678 -24.32860277 28.29617694 -24 24 C-22.23835398 18.71506195 -19.42208724 16.15863374 -15 13 C-11.48672791 11.52669235 -7.76355583 11.79838094 -4 12 C-2.68 12.66 -1.36 13.32 0 14 C0 9.38 0 4.76 0 0 Z M-13 25 C-13.57188443 27.77277298 -13.56623726 30.22659301 -13 33 C-10.78300364 35.7286109 -9.41355329 35.94936082 -5.9375 36.375 C-3.08417555 36.18741312 -3.08417555 36.18741312 -1.125 35 C0.68498652 31.78224619 0.67345584 28.59176448 0 25 C-2.08042997 22.53430522 -3.33716945 22.09942458 -6.5 21.625 C-9.66283055 22.09942458 -10.91957003 22.53430522 -13 25 Z " fill="#ea6365" transform="translate(308,27)"/>
<path d="M0 0 C2.91366558 1.53629639 3.63789405 2.30059107 5.5625 5.1875 C6.16447275 8.27839855 6.16031608 11.09516046 5.5625 14.1875 C1.15583859 19.63784438 -3.67948171 20.18292971 -10.4375 21.1875 C-5.8175 21.1875 -1.1975 21.1875 3.5625 21.1875 C3.5625 24.4875 3.5625 27.7875 3.5625 31.1875 C-0.26244544 32.14373636 -3.38783829 32.3868592 -7.3125 32.4375 C-9.10300781 32.47617188 -9.10300781 32.47617188 -10.9296875 32.515625 C-15.45111141 32.09268557 -18.7116536 30.76166869 -22.08203125 27.6875 C-26.3259127 22.23716395 -27.21341744 17.94126026 -26.4375 11.1875 C-24.64006807 5.33300744 -21.91507862 2.10110565 -16.4375 -0.8125 C-10.76336201 -2.70387933 -5.4299906 -2.5960904 0 0 Z M-12.4375 9.1875 C-12.7675 9.8475 -13.0975 10.5075 -13.4375 11.1875 C-9.33526415 12.20290112 -9.33526415 12.20290112 -5.4375 11.1875 C-5.4375 10.5275 -5.4375 9.8675 -5.4375 9.1875 C-7.7475 9.1875 -10.0575 9.1875 -12.4375 9.1875 Z " fill="#ea6365" transform="translate(423.4375,40.8125)"/>
<path d="M0 0 C3.08034008 2.56695007 3.92974159 4.25526087 4.3125 8.3125 C3.94599135 12.63730212 3.1201518 14.04850506 0 17 C-3.821255 19.06554325 -7.71719248 19.49614029 -12 20 C-7.38 20 -2.76 20 2 20 C2 23.3 2 26.6 2 30 C-5.93890179 31.81166033 -15.20776483 32.70920922 -22.41015625 28.30859375 C-26.37536162 25.04484977 -27.73910274 22.02467148 -28.375 17.08984375 C-28.62070625 10.89343923 -28.30124392 6.79281465 -24 2 C-23.54625 1.4225 -23.0925 0.845 -22.625 0.25 C-15.66923562 -5.10058799 -7.17511824 -3.79859201 0 0 Z M-15 8 C-15.33 8.66 -15.66 9.32 -16 10 C-11.38492226 11.04214691 -11.38492226 11.04214691 -7 10 C-7 9.34 -7 8.68 -7 8 C-9.64 8 -12.28 8 -15 8 Z " fill="#ea6365" transform="translate(207,42)"/>
<path d="M0 0 C0 3.63 0 7.26 0 11 C-0.804375 10.835 -1.60875 10.67 -2.4375 10.5 C-6.65887352 9.90752652 -10.74664545 9.91493291 -15 10 C-14.19175781 10.15855469 -13.38351563 10.31710938 -12.55078125 10.48046875 C-7.75587535 11.52736618 -3.85187157 12.42662491 0.25 15.1875 C2.57251615 18.92011524 2.92768493 21.71704342 2 26 C0.12801477 29.31197387 -1.1686261 30.65167254 -4.67578125 32.12109375 C-8.43377221 33.11468713 -11.67920894 33.23060414 -15.5625 33.1875 C-16.84253906 33.18105469 -18.12257812 33.17460938 -19.44140625 33.16796875 C-22.42937609 33.02693395 -25.10047953 32.6956623 -28 32 C-28 28.7 -28 25.4 -28 22 C-22.39 22 -16.78 22 -11 22 C-12.711875 21.608125 -14.42375 21.21625 -16.1875 20.8125 C-21.02438033 19.46615187 -24.17652934 18.38124758 -27 14 C-27.94431428 9.7677551 -27.50579395 6.89486623 -25.375 3.125 C-18.483797 -3.04081321 -8.50478795 -1.47909356 0 0 Z " fill="#ea6365" transform="translate(241,40)"/>
<path d="M0 0 C3.63 0 7.26 0 11 0 C14.01578157 6.26177547 16.58495328 12.18204762 18 19 C18.66 19 19.32 19 20 19 C20.11214844 18.15179688 20.22429687 17.30359375 20.33984375 16.4296875 C21.04452684 12.76867123 22.18511152 9.58613003 23.5625 6.125 C24.24505859 4.39636719 24.24505859 4.39636719 24.94140625 2.6328125 C25.29074219 1.76398437 25.64007813 0.89515625 26 0 C29.63 0 33.26 0 37 0 C36.1631248 4.18437602 35.12974551 7.45028518 33.53125 11.359375 C33.04269531 12.55691406 32.55414063 13.75445312 32.05078125 14.98828125 C31.79635254 15.60525879 31.54192383 16.22223633 31.27978516 16.85791016 C30.49753665 18.75597713 29.72288382 20.65701419 28.94921875 22.55859375 C25.13687614 31.86312386 25.13687614 31.86312386 24 33 C22.14712498 33.07226502 20.29166122 33.0838122 18.4375 33.0625 C17.42558594 33.05347656 16.41367187 33.04445312 15.37109375 33.03515625 C14.19740234 33.01775391 14.19740234 33.01775391 13 33 C11.14639021 28.46191729 9.29503581 23.9229238 7.44580078 19.38305664 C6.81589263 17.83755407 6.18535992 16.29230592 5.55419922 14.74731445 C4.64908641 12.5314221 3.74619576 10.31463589 2.84375 8.09765625 C2.55939087 7.4028566 2.27503174 6.70805695 1.98205566 5.99220276 C0 1.11387171 0 1.11387171 0 0 Z " fill="#ea6365" transform="translate(361,40)"/>
<path d="M0 0 C3.63 0 7.26 0 11 0 C11 2.97 11 5.94 11 9 C13.97 9 16.94 9 20 9 C20 12.3 20 15.6 20 19 C17.03 19 14.06 19 11 19 C11.103125 20.44375 11.20625 21.8875 11.3125 23.375 C11.39951172 24.59316406 11.39951172 24.59316406 11.48828125 25.8359375 C11.82990528 28.37921338 11.82990528 28.37921338 15 30 C16.9896995 30.39013716 18.99019869 30.73202649 21 31 C21 34.3 21 37.6 21 41 C14.64009849 41.45427868 10.30887128 40.64911329 5 37 C0.48834267 32.25697562 -0.12565512 28.77502286 -0.09765625 22.36328125 C-0.09443359 21.06455078 -0.09121094 19.76582031 -0.08789062 18.42773438 C-0.07953531 17.05598892 -0.07107037 15.68424413 -0.0625 14.3125 C-0.05748335 12.92903805 -0.05292073 11.54557437 -0.04882812 10.16210938 C-0.03702529 6.77469605 -0.02056019 3.38736967 0 0 Z " fill="#ea6365" transform="translate(246,32)"/>
<path d="M0 0 C0 3.63 0 7.26 0 11 C-2.31119792 11.42317708 -4.62239583 11.84635417 -6.93359375 12.26953125 C-7.61550781 12.51058594 -8.29742187 12.75164063 -9 13 C-9.88639389 15.65918166 -10.17989025 17.48064641 -10.31640625 20.23046875 C-10.35830078 21.03291016 -10.40019531 21.83535156 -10.44335938 22.66210938 C-10.48267578 23.49548828 -10.52199219 24.32886719 -10.5625 25.1875 C-10.60568359 26.03248047 -10.64886719 26.87746094 -10.69335938 27.74804688 C-10.79931518 29.83184433 -10.9001502 31.91590103 -11 34 C-14.3 34 -17.6 34 -21 34 C-21.1082077 30.29088058 -21.18742278 26.58493544 -21.25 22.875 C-21.28351563 21.82828125 -21.31703125 20.7815625 -21.3515625 19.703125 C-21.43066512 13.45401764 -21.25876568 9.71068506 -17 5 C-11.08003504 0.43669368 -7.35670825 -0.14147516 0 0 Z " fill="#ea6365" transform="translate(346,39)"/>
<path d="M0 0 C3.63 0 7.26 0 11 0 C11 10.89 11 21.78 11 33 C7.37 33 3.74 33 0 33 C0 22.11 0 11.22 0 0 Z " fill="#ea6365" transform="translate(348,40)"/>
<path d="M0 0 C2 3 2 3 1.75 6.625 C1.5025 7.73875 1.255 8.8525 1 10 C-2.01324195 11.50662097 -4.68286377 11.17770373 -8 11 C-10 9 -10 9 -10.375 5.5625 C-10 2 -10 2 -8.375 0 C-5.16403572 -1.35198496 -3.30053834 -1.00451167 0 0 Z " fill="#ea6365" transform="translate(358,26)"/>
</svg>